# 3ds Max Wavefront OBJ Exporter v0.97b - (c)2007 guruware
# File Created: 13.06.2019 14:39:50

mtllib right_floor.mtl

#
# object Box001
#

v  -19.6850 0.0000 19.6850
v  19.6850 0.0000 19.6850
v  19.6850 0.0000 -19.6850
v  -19.6850 0.0000 -19.6850
# 4 vertices

vn 0.0000 1.0000 -0.0000
# 1 vertex normals

vt 0.0000 0.0000 0.0000
vt 1.0000 0.0000 0.0000
vt 1.0000 1.0000 0.0000
vt 0.0000 1.0000 0.0000
# 4 texture coords

o Box001
g Box001
usemtl 20___Default
s off
f -4/-4/-1 -3/-3/-1 -2/-2/-1 
f -2/-2/-1 -1/-1/-1 -4/-4/-1 
# 2 faces

