# 3ds Max Wavefront OBJ Exporter v0.97b - (c)2007 guruware
# File Created: 28.05.2019 20:39:17

mtllib StaticNormal_Floor.mtl

#
# object Box001
#

v  -19.6850 -0.0000 19.6850
v  19.6850 -0.0000 19.6850
v  19.6850 -0.0000 -19.6850
v  -19.6850 -0.0000 -19.6850
# 4 vertices

vn 0.0000 1.0000 -0.0000
# 1 vertex normals

vt 0.0000 0.0000 0.0000
vt 1.0000 0.0000 0.0000
vt 1.0000 1.0000 0.0000
vt 0.0000 1.0000 0.0000
# 4 texture coords

o Box001
g Box001
usemtl normal_floor
s off
f 1/1/1 2/2/1 3/3/1 
f 3/3/1 4/4/1 1/1/1 
# 2 faces

