# 3ds Max Wavefront OBJ Exporter v0.97b - (c)2007 guruware
# File Created: 13.06.2019 15:52:55

mtllib right_wall.mtl

#
# object Box001
#

v  -18.0863 0.0000 1.7020
v  -18.0863 0.0000 -2.2350
v  21.2838 0.0000 -2.2350
v  21.2838 0.0000 1.7020
v  -18.0863 39.3701 1.7020
v  21.2838 39.3701 1.7020
v  21.2838 39.3701 -2.2350
v  -18.0863 39.3701 -2.2350
v  -18.0860 1.0000 1.7020
v  21.2849 1.0000 1.7020
v  21.2849 0.0000 1.7020
v  -18.0860 0.0000 1.7020
v  21.2849 0.0000 2.0020
v  21.2849 1.0000 2.0020
v  -18.0860 1.0000 2.0020
v  -18.0860 0.0000 2.0020
v  21.2849 0.0000 1.9020
v  -18.0860 0.0000 1.9020
v  21.2849 1.0000 1.9020
v  21.2849 2.0000 1.7020
v  -18.0860 2.0000 1.7020
v  -18.0860 2.0000 1.9020
v  21.2849 2.0000 1.9020
v  -18.0860 1.0000 1.9020
v  -18.0860 1.0000 -2.2420
v  -18.0860 0.0000 -2.2420
v  21.2849 0.0000 -2.2420
v  21.2849 1.0000 -2.2420
v  21.2849 0.0000 -2.5420
v  -18.0860 0.0000 -2.5420
v  -18.0860 1.0000 -2.5420
v  21.2849 1.0000 -2.5420
v  -18.0860 0.0000 -2.4420
v  21.2849 0.0000 -2.4420
v  21.2849 1.0000 -2.4420
v  21.2849 2.0000 -2.2420
v  21.2849 2.0000 -2.4420
v  -18.0860 2.0000 -2.4420
v  -18.0860 2.0000 -2.2420
v  -18.0860 1.0000 -2.4420
# 40 vertices

vn 0.0000 -1.0000 -0.0000
vn 0.0000 1.0000 -0.0000
vn 0.0000 0.0000 1.0000
vn 1.0000 0.0000 -0.0000
vn 0.0000 0.0000 -1.0000
vn -1.0000 0.0000 -0.0000
vn 0.0000 1.0000 0.0000
vn 0.0000 -0.0000 1.0000
vn -0.0000 1.0000 -0.0000
# 9 vertex normals

vt 0.0005 0.1425 0.0000
vt 0.1004 0.1425 0.0000
vt 0.1004 0.9995 0.0000
vt 0.0005 0.9995 0.0000
vt 0.3156 0.1425 0.0000
vt 0.3156 0.9995 0.0000
vt 0.2157 0.9995 0.0000
vt 0.2157 0.1425 0.0000
vt 0.9995 0.1425 0.0000
vt 0.9995 0.9995 0.0000
vt 0.1081 0.1425 0.0000
vt 0.2080 0.1425 0.0000
vt 0.2080 0.9995 0.0000
vt 0.1081 0.9995 0.0000
vt 0.3233 0.1425 0.0000
vt 0.4232 0.1425 0.0000
vt 0.4232 0.9995 0.0000
vt 0.3233 0.9995 0.0000
vt 0.0010 0.0833 0.0000
vt 0.9990 0.0833 0.0000
vt 0.9990 0.1087 0.0000
vt 0.0010 0.1087 0.0000
vt 0.9990 0.0286 0.0000
vt 0.9990 0.0540 0.0000
vt 0.0010 0.0540 0.0000
vt 0.0010 0.0286 0.0000
vt 0.0010 0.0165 0.0000
vt 0.9990 0.0165 0.0000
vt 0.9990 0.0216 0.0000
vt 0.0010 0.0216 0.0000
vt 0.0384 0.1409 0.0000
vt 0.0384 0.1459 0.0000
vt 0.0131 0.1459 0.0000
vt 0.0131 0.1409 0.0000
vt 0.0010 0.0079 0.0000
vt 0.9990 0.0079 0.0000
vt 0.9990 0.0130 0.0000
vt 0.0010 0.0130 0.0000
vt 0.0010 0.1662 0.0000
vt 0.0061 0.1662 0.0000
vt 0.0061 0.1916 0.0000
vt 0.0010 0.1916 0.0000
vt 0.0010 0.0580 0.0000
vt 0.9990 0.0580 0.0000
vt 0.9990 0.1386 0.0000
vt 0.0010 0.1386 0.0000
vt 0.0010 0.1132 0.0000
vt 0.9990 0.1132 0.0000
vt 0.0638 0.1409 0.0000
vt 0.0638 0.1459 0.0000
vt 0.0010 0.1409 0.0000
vt 0.0061 0.1409 0.0000
vt 0.9990 0.0241 0.0000
vt 0.0010 0.0241 0.0000
vt 0.0384 0.1485 0.0000
vt 0.0131 0.1485 0.0000
vt 0.0010 0.0010 0.0000
vt 0.9990 0.0010 0.0000
vt 0.9990 0.0035 0.0000
vt 0.0010 0.0035 0.0000
vt 0.0086 0.1409 0.0000
vt 0.0086 0.1662 0.0000
# 62 texture coords

o Box001
g Box001
usemtl 13___Default
s off
f -40/-62/-9 -39/-61/-9 -38/-60/-9 
f -38/-60/-9 -37/-59/-9 -40/-62/-9 
f -36/-58/-8 -35/-57/-8 -34/-56/-8 
f -34/-56/-8 -33/-55/-8 -36/-58/-8 
f -40/-62/-7 -37/-54/-7 -35/-53/-7 
f -35/-53/-7 -36/-59/-7 -40/-62/-7 
f -37/-52/-6 -38/-51/-6 -34/-50/-6 
f -34/-50/-6 -35/-49/-6 -37/-52/-6 
f -38/-62/-5 -39/-54/-5 -33/-53/-5 
f -33/-53/-5 -34/-59/-5 -38/-62/-5 
f -39/-48/-4 -40/-47/-4 -36/-46/-4 
f -36/-46/-4 -33/-45/-4 -39/-48/-4 
s 2
f -32/-44/-5 -31/-43/-5 -30/-42/-5 
f -30/-42/-5 -29/-41/-5 -32/-44/-5 
s 4
f -28/-40/-7 -27/-39/-7 -26/-38/-7 
f -26/-38/-7 -25/-37/-7 -28/-40/-7 
s 8
f -29/-36/-9 -30/-35/-9 -24/-34/-9 
f -24/-34/-9 -23/-33/-9 -29/-36/-9 
s 16
f -31/-32/-6 -22/-31/-6 -24/-30/-6 
f -24/-30/-6 -30/-29/-6 -31/-32/-6 
s 32
f -21/-28/-3 -20/-27/-3 -19/-26/-3 
f -19/-26/-3 -18/-25/-3 -21/-28/-3 
s 64
f -32/-24/-4 -17/-23/-4 -19/-22/-4 
f -19/-22/-4 -20/-21/-4 -32/-24/-4 
s 2
f -20/-20/-5 -21/-19/-5 -31/-43/-5 
f -31/-43/-5 -32/-44/-5 -20/-20/-5 
s 4
f -18/-18/-2 -19/-17/-2 -17/-16/-2 
f -17/-16/-2 -22/-15/-2 -18/-18/-2 
s 16
f -21/-14/-6 -18/-13/-6 -22/-31/-6 
f -22/-31/-6 -31/-32/-6 -21/-14/-6 
s 64
f -29/-12/-4 -23/-11/-4 -17/-23/-4 
f -17/-23/-4 -32/-24/-4 -29/-12/-4 
s off
f -23/-33/-9 -24/-34/-9 -28/-10/-9 
f -28/-10/-9 -25/-9/-9 -23/-33/-9 
f -24/-30/-6 -22/-31/-6 -27/-8/-6 
f -27/-8/-6 -28/-7/-6 -24/-30/-6 
f -22/-6/-1 -17/-5/-1 -26/-4/-1 
f -26/-4/-1 -27/-3/-1 -22/-6/-1 
f -17/-23/-4 -23/-11/-4 -25/-2/-4 
f -25/-2/-4 -26/-1/-4 -17/-23/-4 
s 2
f -16/-44/-7 -15/-41/-7 -14/-42/-7 
f -14/-42/-7 -13/-43/-7 -16/-44/-7 
s 4
f -12/-40/-5 -11/-37/-5 -10/-38/-5 
f -10/-38/-5 -9/-39/-5 -12/-40/-5 
s 8
f -15/-36/-9 -8/-33/-9 -7/-34/-9 
f -7/-34/-9 -14/-35/-9 -15/-36/-9 
s 16
f -13/-32/-6 -14/-29/-6 -7/-30/-6 
f -7/-30/-6 -6/-31/-6 -13/-32/-6 
s 32
f -5/-28/-8 -4/-25/-8 -3/-26/-8 
f -3/-26/-8 -2/-27/-8 -5/-28/-8 
s 64
f -16/-24/-4 -2/-21/-4 -3/-22/-4 
f -3/-22/-4 -1/-23/-4 -16/-24/-4 
s 2
f -2/-20/-7 -16/-44/-7 -13/-43/-7 
f -13/-43/-7 -5/-19/-7 -2/-20/-7 
s 4
f -4/-18/-5 -6/-15/-5 -1/-16/-5 
f -1/-16/-5 -3/-17/-5 -4/-18/-5 
s 16
f -5/-14/-6 -13/-32/-6 -6/-31/-6 
f -6/-31/-6 -4/-13/-6 -5/-14/-6 
s 64
f -15/-12/-4 -16/-24/-4 -1/-23/-4 
f -1/-23/-4 -8/-11/-4 -15/-12/-4 
s off
f -8/-33/-9 -11/-9/-9 -12/-10/-9 
f -12/-10/-9 -7/-34/-9 -8/-33/-9 
f -7/-30/-6 -12/-7/-6 -9/-8/-6 
f -9/-8/-6 -6/-31/-6 -7/-30/-6 
f -6/-6/-1 -9/-3/-1 -10/-4/-1 
f -10/-4/-1 -1/-5/-1 -6/-6/-1 
f -1/-23/-4 -10/-1/-4 -11/-2/-4 
f -11/-2/-4 -8/-11/-4 -1/-23/-4 
# 68 faces

